<svg xmlns="http://www.w3.org/2000/svg" xmlns:xlink="http://www.w3.org/1999/xlink" version="1.1" width="79.96325" height="99.12314" viewBox="0,0,79.96325,99.12314"><defs><style></style></defs><g><g data-paper-data="{&quot;isPaintingLayer&quot;:true}" fill-rule="nonzero" stroke="#000000" stroke-linecap="none" stroke-linejoin="miter" stroke-miterlimit="10" stroke-dasharray="" stroke-dashoffset="0" font-family="none" font-weight="none" font-size="none" text-anchor="none" style="mix-blend-mode: normal"><path d="M 39.4677 40.574 C 55.0288 40.574 38.3287 55.5875 44.706 67.719 C 47.7155 73.4439 51.1255 75.3949 56.0847 79.3994 C 61.6778 83.9156 24.6471 84.8584 28.2171 80.7164 C 32.0975 76.2143 34.3365 73.5719 36.6697 68.0378 C 41.5857 56.3777 24.0204 40.574 39.4677 40.574 Z " data-paper-data="{&quot;origPos&quot;:null}" fill="#ffce00" stroke-width="5" stroke-linecap="butt"/><path d="M 17.8507 96.6232 L 17.8507 80.0841 L 64.7683 80.0841 L 64.7683 96.6231 Z " data-paper-data="{&quot;origPos&quot;:null}" fill="#b85200" stroke-width="5" stroke-linecap="butt"/><path d="M 10.7309 4.6157 C 14.7347 3.2935 55.9035 1.9417 64.82 2.7374 C 75.0328 3.6486 64.4587 24.6675 59.093 33.7329 C 54.836 40.9252 47.4502 41.9523 39.3177 41.9523 C 39.3177 41.9523 26.6421 42.1703 21.7022 35.1612 C 15.7372 26.6977 9.3963 5.0565 10.7309 4.6157 Z " data-paper-data="{&quot;origPos&quot;:null}" fill="#ffce00" stroke-width="5" stroke-linecap="butt"/><path d="M 67.8666 4.6689 C 67.8666 7.2267 55.4812 13.4683 40.2029 13.4683 C 24.9247 13.4683 12.5392 7.2267 12.5392 4.6689 C 12.5392 2.1111 24.9247 4.2058 40.2029 4.2058 C 55.4812 4.2058 67.8666 2.1111 67.8666 4.6689 Z " data-paper-data="{&quot;origPos&quot;:null}" fill="#c79f00" stroke-width="5" stroke-linecap="butt"/><path d="M 68.3093 5.1987 L 77.1617 15.3059 L 73.1781 28.1697 L 61.67 37.8175 L 56.8012 38.2769 " data-paper-data="{&quot;origPos&quot;:null}" fill="none" stroke-width="5" stroke-linecap="round"/><path d="M 23.1621 38.2769 L 18.2933 37.8175 L 6.7852 28.1697 L 2.8016 15.3059 L 11.654 5.1987 " data-paper-data="{&quot;origPos&quot;:null,&quot;index&quot;:null}" fill="none" stroke-width="5" stroke-linecap="round"/><path d="M 26.1199 91.9875 L 26.1199 85.1791 L 57.4283 85.1791 L 57.4283 91.9875 Z " data-paper-data="{&quot;origPos&quot;:null}" fill="#ffce00" stroke-width="2.5" stroke-linecap="butt"/></g></g></svg>